<svg width="1000" height="1000" xmlns="http://www.w3.org/2000/svg"><defs><marker id="arrow" viewBox="0 0 10 10" refX="5" refY="5" markerWidth="10" markerHeight="10" orient="auto-start-reverse"><path d="M 0 0 L 10 5 L 0 10 z"></path></marker></defs><g><line stroke-opacity="0.8" stroke="gray" x1="578.2274141548952" y1="497.6277053711807" x2="489.5353663075974" y2="592.6858089760954"></line><line stroke-opacity="0.8" stroke="gray" x1="489.5353663075974" y1="592.6858089760954" x2="448.2551371432245" y2="501.62535484005923"></line><line stroke-opacity="0.8" stroke="gray" marker-end="url(#arrow)" x1="448.2551371432245" y1="501.62535484005923" x2="466.061657497577" y2="454.90354262017127"></line><line stroke-opacity="0.8" stroke="gray" x1="466.061657497577" y1="454.90354262017127" x2="483.86817785192954" y2="408.1817304002833"></line></g><g></g><g></g><g stroke-linecap="round" stroke-linejoin="round"><g transform="translate(578.2274141548952,497.6277053711807)"><rect stroke="blue" stroke-width="1.5" fill="white" width="120" height="75" rx="10" ry="10" x="-60" y="-37.5"></rect><text x="0" y="-25" text-anchor="middle" dominant-baseline="middle" fill="blue" style="font-weight: bold;">Product</text><line x1="-60" y1="-15" x2="60" y2="-15" stroke="blue"></line><text x="-45" y="2.5" text-anchor="start" dominant-baseline="auto" fill="grey">productID</text><line x1="-50" y1="7.5" x2="50" y2="7.5" stroke="blue"></line><text x="-45" y="22.5" text-anchor="start" dominant-baseline="auto" fill="grey">productName</text></g><g transform="translate(489.5353663075974,592.6858089760954)"><circle stroke="blue" stroke-width="1.5" fill="white" r="10"></circle><text x="0" y="20" text-anchor="middle" dominant-baseline="middle" fill="black">newProduct</text></g><g transform="translate(448.2551371432245,501.62535484005923)"><circle stroke="blue" stroke-width="1.5" fill="white" r="10"></circle><text x="0" y="20" text-anchor="middle" dominant-baseline="middle" fill="black">newCategory</text></g><g transform="translate(483.86817785192954,408.1817304002833)"><circle stroke="blue" stroke-width="1.5" fill="white" r="10"></circle><text x="0" y="20" text-anchor="middle" dominant-baseline="middle" fill="black">newFamily</text></g></g></svg>