<svg width="1000" height="1000" xmlns="http://www.w3.org/2000/svg"><defs><marker id="arrow" viewBox="0 0 10 10" refX="5" refY="5" markerWidth="10" markerHeight="10" orient="auto-start-reverse"><path d="M 0 0 L 10 5 L 0 10 z"></path></marker></defs><g><line stroke-opacity="0.8" stroke="gray" x1="502.48573601100765" y1="454.9712386795354" x2="392.214789225813" y2="523.8588379590611"></line><line stroke-opacity="0.8" stroke="gray" x1="375.9910783206704" y1="425.19407136922564" x2="298.6551518656704" y2="488.5908731671671"></line><line stroke-opacity="0.8" stroke="gray" x1="502.48573601100765" y1="454.9712386795354" x2="632.0146941927547" y2="443.96376103813213"></line><line stroke-opacity="0.8" stroke="gray" x1="502.48573601100765" y1="454.9712386795354" x2="480.500636742894" y2="600.0378058872668"></line><line stroke-opacity="0.8" stroke="gray" x1="502.48573601100765" y1="454.9712386795354" x2="607.0061618495953" y2="557.91738459559"></line></g><g><line stroke-opacity="0.8" stroke="gray" x1="394.68166187946457" y1="523.4532035045753" x2="378.457950974322" y2="424.78843691473975"></line><line stroke-opacity="0.8" stroke="gray" x1="389.7479165721614" y1="524.264472413547" x2="373.5242056670188" y2="425.59970582371153"></line><line stroke-opacity="0.8" stroke="gray" x1="633.5462479288401" y1="441.98781995766365" x2="712.5963341632466" y2="503.25961399388797"></line><line stroke-opacity="0.8" stroke="gray" x1="630.4831404566694" y1="445.9397021186006" x2="709.5332266910759" y2="507.21149615482494"></line></g><g><line stroke-opacity="0.8" stroke="gray" x1="340.492955183248" y1="460.75926859116663" x2="334.15327500309274" y2="453.02567594522606"></line></g><g stroke-linecap="round" stroke-linejoin="round"><g transform="translate(502.48573601100765,454.9712386795354)"><rect stroke="blue" stroke-width="1.5" fill="white" width="120" height="115" rx="10" ry="10" x="-60" y="-57.5"></rect><text x="0" y="-45" text-anchor="middle" dominant-baseline="middle" fill="blue" style="font-weight: bold;">Sales</text><line x1="-60" y1="-35" x2="60" y2="-35" stroke="blue"></line><text x="-45" y="-17.5" text-anchor="start" dominant-baseline="auto" fill="grey">sales</text><line x1="-50" y1="-12.5" x2="50" y2="-12.5" stroke="blue"></line><text x="-45" y="2.5" text-anchor="start" dominant-baseline="auto" fill="grey">quantity</text><line x1="-50" y1="7.5" x2="50" y2="7.5" stroke="blue"></line><text x="-45" y="22.5" text-anchor="start" dominant-baseline="auto" fill="grey">revenue</text><line x1="-50" y1="27.5" x2="50" y2="27.5" stroke="blue"></line><text x="-45" y="42.5" text-anchor="start" dominant-baseline="auto" fill="grey" textLength="90" lengthAdjust="spacing">thisisaverylarged</text></g><g transform="translate(392.214789225813,523.8588379590611)"><circle stroke="blue" stroke-width="1.5" fill="white" r="10"></circle><text x="0" y="20" text-anchor="middle" dominant-baseline="middle" fill="black">product</text></g><g transform="translate(375.9910783206704,425.19407136922564)"><circle stroke="blue" stroke-width="1.5" fill="white" r="10"></circle><text x="0" y="20" text-anchor="middle" dominant-baseline="middle" fill="black">category</text><line x1="-15" y1="0" x2="15" y2="0" stroke="black"></line></g><g transform="translate(298.6551518656704,488.5908731671671)"><circle stroke="blue" stroke-width="1.5" fill="white" r="10"></circle><text x="0" y="20" text-anchor="middle" dominant-baseline="middle" fill="black">family</text></g><g transform="translate(632.0146941927547,443.96376103813213)"><circle stroke="blue" stroke-width="1.5" fill="white" r="10"></circle><text x="0" y="20" text-anchor="middle" dominant-baseline="middle" fill="black">city</text></g><g transform="translate(711.0647804271613,505.23555507435645)"><circle stroke="blue" stroke-width="1.5" fill="white" r="10"></circle><text x="0" y="20" text-anchor="middle" dominant-baseline="middle" fill="black">country</text></g><g transform="translate(480.500636742894,600.0378058872668)"><rect fill="white" width="100" height="20" x="-50" y="-10"></rect><text x="0" y="0" text-anchor="middle" dominant-baseline="middle" fill="black">accountant</text><line x1="-50" y1="10" x2="50" y2="10" stroke="black"></line></g><g transform="translate(607.0061618495953,557.91738459559)"><rect fill="white" width="100" height="20" x="-50" y="-10"></rect><text x="0" y="0" text-anchor="middle" dominant-baseline="middle" fill="black">salesman</text><line x1="-50" y1="10" x2="50" y2="10" stroke="black"></line></g></g></svg>