<svg width="1000" height="1000" xmlns="http://www.w3.org/2000/svg"><defs><marker id="arrow" viewBox="0 0 10 10" refX="5" refY="5" markerWidth="10" markerHeight="10" orient="auto-start-reverse"><path d="M 0 0 L 10 5 L 0 10 z"></path></marker></defs><g><line stroke-opacity="0.8" stroke="gray" x1="387.2153087001847" y1="639.2567318138227" x2="514.9084558161427" y2="663.743106885066"></line><line stroke-opacity="0.8" stroke="gray" x1="600.1076300925932" y1="610.7914385542778" x2="663.0555321623733" y2="533.0913405753446"></line><line stroke-opacity="0.8" stroke="gray" x1="387.2153087001847" y1="639.2567318138227" x2="284.73025423755064" y2="559.2676617348333"></line><line stroke-opacity="0.8" stroke="gray" x1="387.2153087001847" y1="639.2567318138227" x2="380.53518286299254" y2="492.6962290556384"></line><line stroke-opacity="0.8" stroke="gray" x1="387.2153087001847" y1="639.2567318138227" x2="501.9435058095208" y2="547.8124415312717"></line><line stroke-opacity="0.8" stroke="gray" x1="584.6602884267415" y1="296.45101922679197" x2="511.71269925643" y2="404.0659422000929"></line><line stroke-opacity="0.8" stroke="gray" x1="511.71269925643" y1="404.0659422000929" x2="609.6741904811145" y2="424.0561864297258"></line><line stroke-opacity="0.8" stroke="gray" marker-end="url(#arrow)" x1="609.6741904811145" y1="424.0561864297258" x2="651.2644909732437" y2="396.302865741656"></line><line stroke-opacity="0.8" stroke="gray" x1="651.2644909732437" y1="396.302865741656" x2="692.8547914653728" y2="368.5495450535862"></line></g><g><line stroke-opacity="0.8" stroke="gray" x1="516.2281117059595" y1="665.8664317147782" x2="601.42728598241" y2="612.9147633839899"></line><line stroke-opacity="0.8" stroke="gray" x1="513.5887999263259" y1="661.6197820553539" x2="598.7879742027765" y2="608.6681137245656"></line><line stroke-opacity="0.8" stroke="gray" x1="287.19673900816656" y1="558.8596753670221" x2="270.8744191700962" y2="460.18296340306273"></line><line stroke-opacity="0.8" stroke="gray" x1="282.2637694669347" y1="559.6756481026445" x2="265.94144962886435" y2="460.998936138685"></line></g><g><line stroke-opacity="0.8" stroke="gray" x1="635.4666358329714" y1="575.0888250185362" x2="627.6965264219953" y2="568.7939541110861"></line></g><g stroke-linecap="round" stroke-linejoin="round"><g transform="translate(387.2153087001847,639.2567318138227)"><rect stroke="blue" stroke-width="1.5" fill="white" width="120" height="115" rx="10" ry="10" x="-60" y="-57.5"></rect><text x="0" y="-45" text-anchor="middle" dominant-baseline="middle" fill="blue" style="font-weight: bold;">Sales</text><line x1="-60" y1="-35" x2="60" y2="-35" stroke="blue"></line><text x="-45" y="-17.5" text-anchor="start" dominant-baseline="auto" fill="grey">sales</text><line x1="-50" y1="-12.5" x2="50" y2="-12.5" stroke="blue"></line><text x="-45" y="2.5" text-anchor="start" dominant-baseline="auto" fill="grey">quantity</text><line x1="-50" y1="7.5" x2="50" y2="7.5" stroke="blue"></line><text x="-45" y="22.5" text-anchor="start" dominant-baseline="auto" fill="grey">revenue</text><line x1="-50" y1="27.5" x2="50" y2="27.5" stroke="blue"></line><text x="-45" y="42.5" text-anchor="start" dominant-baseline="auto" fill="grey" textLength="90" lengthAdjust="spacing">thisisaverylarged</text></g><g transform="translate(514.9084558161427,663.743106885066)"><circle stroke="blue" stroke-width="1.5" fill="white" r="10"></circle><text x="0" y="20" text-anchor="middle" dominant-baseline="middle" fill="black">product</text></g><g transform="translate(600.1076300925932,610.7914385542778)"><circle stroke="blue" stroke-width="1.5" fill="white" r="10"></circle><text x="0" y="20" text-anchor="middle" dominant-baseline="middle" fill="black">category</text><line x1="-15" y1="0" x2="15" y2="0" stroke="black"></line></g><g transform="translate(663.0555321623733,533.0913405753446)"><circle stroke="blue" stroke-width="1.5" fill="white" r="10"></circle><text x="0" y="20" text-anchor="middle" dominant-baseline="middle" fill="black">family</text></g><g transform="translate(284.73025423755064,559.2676617348333)"><circle stroke="blue" stroke-width="1.5" fill="white" r="10"></circle><text x="0" y="20" text-anchor="middle" dominant-baseline="middle" fill="black">city</text></g><g transform="translate(268.40793439948027,460.59094977087386)"><circle stroke="blue" stroke-width="1.5" fill="white" r="10"></circle><text x="0" y="20" text-anchor="middle" dominant-baseline="middle" fill="black">country</text></g><g transform="translate(380.53518286299254,492.6962290556384)"><rect fill="white" width="100" height="20" x="-50" y="-10"></rect><text x="0" y="0" text-anchor="middle" dominant-baseline="middle" fill="black">accountant</text><line x1="-50" y1="10" x2="50" y2="10" stroke="black"></line></g><g transform="translate(501.9435058095208,547.8124415312717)"><rect fill="white" width="100" height="20" x="-50" y="-10"></rect><text x="0" y="0" text-anchor="middle" dominant-baseline="middle" fill="black">salesman</text><line x1="-50" y1="10" x2="50" y2="10" stroke="black"></line></g><g transform="translate(584.6602884267415,296.45101922679197)"><rect stroke="blue" stroke-width="1.5" fill="white" width="120" height="75" rx="10" ry="10" x="-60" y="-37.5"></rect><text x="0" y="-25" text-anchor="middle" dominant-baseline="middle" fill="blue" style="font-weight: bold;">Product</text><line x1="-60" y1="-15" x2="60" y2="-15" stroke="blue"></line><text x="-45" y="2.5" text-anchor="start" dominant-baseline="auto" fill="grey">productID</text><line x1="-50" y1="7.5" x2="50" y2="7.5" stroke="blue"></line><text x="-45" y="22.5" text-anchor="start" dominant-baseline="auto" fill="grey">productName</text></g><g transform="translate(511.71269925643,404.0659422000929)"><circle stroke="blue" stroke-width="1.5" fill="white" r="10"></circle><text x="0" y="20" text-anchor="middle" dominant-baseline="middle" fill="black">newProduct</text></g><g transform="translate(609.6741904811145,424.0561864297258)"><circle stroke="blue" stroke-width="1.5" fill="white" r="10"></circle><text x="0" y="20" text-anchor="middle" dominant-baseline="middle" fill="black">newCategory</text></g><g transform="translate(692.8547914653728,368.5495450535862)"><circle stroke="blue" stroke-width="1.5" fill="white" r="10"></circle><text x="0" y="20" text-anchor="middle" dominant-baseline="middle" fill="black">newFamily</text></g></g></svg>